<svg width="56" height="20" viewBox="0 0 56 20" fill="none" xmlns="http://www.w3.org/2000/svg">
<path d="M7.66089 6.54443H5.21167V14.792H2.38208V6.54443H0.823486V5.18066L2.38208 4.41992V3.65918C2.38208 2.47786 2.67277 1.61507 3.25415 1.0708C3.83553 0.52653 4.76636 0.254395 6.04663 0.254395C7.02384 0.254395 7.89282 0.39974 8.65356 0.69043L7.92993 2.76855C7.36092 2.58919 6.83521 2.49951 6.35278 2.49951C5.95077 2.49951 5.66007 2.62012 5.48071 2.86133C5.30135 3.09635 5.21167 3.39941 5.21167 3.77051V4.41992H7.66089V6.54443Z" fill="#2F2E41"/>
<path d="M16.1414 14.792L15.761 13.4653H15.6125C15.3095 13.9478 14.8796 14.3219 14.323 14.5879C13.7664 14.8477 13.1324 14.9775 12.4211 14.9775C11.2027 14.9775 10.2843 14.6528 9.66577 14.0034C9.04728 13.3478 8.73804 12.4077 8.73804 11.1831V4.41992H11.5676V10.478C11.5676 11.2264 11.7006 11.7892 11.9666 12.1665C12.2325 12.5376 12.6562 12.7231 13.2375 12.7231C14.0292 12.7231 14.6013 12.4603 14.9539 11.9346C15.3064 11.4027 15.4827 10.5244 15.4827 9.2998V4.41992H18.3123V14.792H16.1414Z" fill="#2F2E41"/>
<path d="M28.0173 11.7119C28.0173 12.7757 27.6462 13.5859 26.9041 14.1426C26.1681 14.6992 25.064 14.9775 23.592 14.9775C22.8375 14.9775 22.1943 14.925 21.6624 14.8198C21.1305 14.7209 20.6326 14.5724 20.1687 14.3745V12.0366C20.6944 12.284 21.2851 12.4912 21.9407 12.6582C22.6025 12.8252 23.1838 12.9087 23.6848 12.9087C24.7115 12.9087 25.2249 12.6118 25.2249 12.0181C25.2249 11.7954 25.1568 11.616 25.0208 11.48C24.8847 11.3377 24.6497 11.18 24.3157 11.0068C23.9817 10.8275 23.5364 10.6203 22.9797 10.3853C22.1819 10.0513 21.5943 9.74202 21.217 9.45752C20.8459 9.17301 20.5738 8.84831 20.4006 8.4834C20.2336 8.1123 20.1501 7.65771 20.1501 7.11963C20.1501 6.19808 20.5058 5.48682 21.217 4.98584C21.9345 4.47868 22.9488 4.2251 24.26 4.2251C25.5094 4.2251 26.7247 4.49723 27.906 5.0415L27.0525 7.08252C26.533 6.85986 26.0474 6.67741 25.5959 6.53516C25.1444 6.3929 24.6837 6.32178 24.2136 6.32178C23.3787 6.32178 22.9612 6.54753 22.9612 6.99902C22.9612 7.2526 23.0942 7.47217 23.3601 7.65771C23.6322 7.84326 24.2229 8.11849 25.1321 8.4834C25.9423 8.8112 26.5361 9.11735 26.9133 9.40186C27.2906 9.68636 27.5689 10.0142 27.7483 10.3853C27.9277 10.7563 28.0173 11.1986 28.0173 11.7119Z" fill="#2F2E41"/>
<path d="M34.0208 6.23828C33.4208 6.23828 32.9508 6.43001 32.6106 6.81348C32.2704 7.19076 32.0756 7.72884 32.0261 8.42773H35.9968C35.9845 7.72884 35.802 7.19076 35.4495 6.81348C35.0969 6.43001 34.6207 6.23828 34.0208 6.23828ZM34.4197 14.9775C32.7498 14.9775 31.4447 14.5168 30.5046 13.5952C29.5645 12.6737 29.0945 11.3687 29.0945 9.68018C29.0945 7.94222 29.5274 6.6001 30.3933 5.65381C31.2654 4.70133 32.4683 4.2251 34.0022 4.2251C35.468 4.2251 36.6091 4.64258 37.4255 5.47754C38.2419 6.3125 38.6501 7.46598 38.6501 8.93799V10.311H31.9612C31.9921 11.1151 32.2302 11.7428 32.6755 12.1943C33.1208 12.6458 33.7455 12.8716 34.5496 12.8716C35.1742 12.8716 35.7649 12.8066 36.3215 12.6768C36.8782 12.5469 37.4596 12.3397 38.0657 12.0552V14.2446C37.5709 14.492 37.0421 14.6745 36.4792 14.792C35.9164 14.9157 35.2299 14.9775 34.4197 14.9775Z" fill="#2F2E41"/>
<path d="M43.2805 14.792H40.4509V0.356445H43.2805V14.792Z" fill="#2F2E41"/>
<path d="M44.2742 4.41992H47.3728L49.3303 10.2554C49.4973 10.7625 49.6117 11.3625 49.6736 12.0552H49.7292C49.7973 11.4181 49.9303 10.8182 50.1282 10.2554L52.0486 4.41992H55.0823L50.6941 16.1187C50.2921 17.201 49.7169 18.0112 48.9685 18.5493C48.2263 19.0874 47.3573 19.3564 46.3616 19.3564C45.873 19.3564 45.3936 19.3039 44.9236 19.1987V16.9536C45.2638 17.034 45.6348 17.0742 46.0369 17.0742C46.5378 17.0742 46.9739 16.9196 47.345 16.6104C47.7222 16.3073 48.016 15.8465 48.2263 15.228L48.3933 14.7178L44.2742 4.41992Z" fill="#2F2E41"/>
</svg>
