<svg width="30" height="28" viewBox="0 0 30 28" fill="none" xmlns="http://www.w3.org/2000/svg">
<path fill-rule="evenodd" clip-rule="evenodd" d="M26.3305 5.12085C27.2271 6.09278 27.9658 7.17721 28.5239 8.34085C29.3368 10.0375 29.755 11.8694 29.7521 13.7208C29.7461 21.1942 23.11 27.2543 14.9141 27.2708C13.0071 27.2699 11.1186 26.9302 9.35397 26.2708C8.09537 25.8148 6.91387 25.1987 5.84461 24.4408C1.29668 21.2804 -0.854957 16.0182 0.313762 10.9143C1.48248 5.81032 5.76356 1.77289 11.3184 0.535925C16.8733 -0.701037 22.7134 1.08261 26.3305 5.12085ZM19.8598 3.91087C18.3072 3.25201 16.6153 2.9107 14.9028 2.91087L14.9138 2.89087C10.8528 2.88811 7.07347 4.78265 4.90001 7.91062C2.72655 11.0386 2.46208 14.9638 4.19927 18.3109C4.69463 17.8363 4.99989 17.2233 5.06564 16.5709C5.46451 14.0583 7.62903 12.0846 10.3845 11.7209C11.9392 11.5923 13.1808 10.4853 13.3565 9.07087C13.7554 6.55829 15.9199 4.58458 18.6754 4.22087C19.0831 4.16423 19.4812 4.06004 19.8598 3.91087ZM5.83341 20.7208C5.87728 20.6841 5.92115 20.6486 5.96502 20.613C6.05275 20.5419 6.14049 20.4708 6.22822 20.3908C7.20388 19.5283 7.83015 18.3897 8.00483 17.1608C8.07566 16.4701 8.41389 15.8249 8.95894 15.3408C9.48342 14.843 10.1894 14.5371 10.9439 14.4808C13.6994 14.1171 15.8639 12.1434 16.2628 9.63082C16.3102 8.90833 16.6503 8.22766 17.2169 7.72082C17.7543 7.23267 18.467 6.93792 19.2238 6.89082C20.4564 6.73618 21.606 6.23653 22.5139 5.46082C23.5476 6.24289 24.4235 7.18371 25.102 8.24082C25.0603 8.29217 25.0125 8.33912 24.9594 8.38082C24.436 8.88301 23.7309 9.19558 22.9745 9.26082C20.2155 9.61826 18.0476 11.5951 17.6556 14.1108C17.4962 15.5302 16.2627 16.6508 14.7055 16.7908C11.9424 17.1517 9.76654 19.1235 9.35374 21.6408C9.29472 22.1295 9.11066 22.5988 8.81637 23.0108C7.69118 22.4017 6.68343 21.628 5.83341 20.7208ZM11.6125 24.1609C12.6821 24.4406 13.7895 24.582 14.9023 24.5809V24.5309C18.5749 24.5179 22.0339 22.9547 24.2696 20.2976C26.5053 17.6406 27.2657 14.1892 26.3289 10.9509C25.4964 11.4877 24.5327 11.8309 23.5216 11.9509C21.9688 12.0953 20.7411 13.2149 20.5827 14.6309C20.1826 17.1466 18.0128 19.1212 15.2532 19.4809C13.7004 19.6253 12.4727 20.7449 12.3143 22.1609C12.2162 22.861 11.9784 23.5389 11.6125 24.1609Z" fill="#9893A3" fill-opacity="0.6"/>
</svg>
