<svg width="70" height="16" viewBox="0 0 70 16" fill="none" xmlns="http://www.w3.org/2000/svg">
<path d="M3.79083 13.3914H6.03693C6.68797 13.3914 7.01349 13.0007 7.01349 12.2195V7.33667C7.01349 6.55542 6.68797 6.16479 6.03693 6.16479H3.79083C3.13979 6.16479 2.81427 6.55542 2.81427 7.33667V12.2195C2.81427 13.0007 3.13979 13.3914 3.79083 13.3914ZM3.79083 15.1492C1.83771 15.1492 0.861145 14.1726 0.861145 12.2195V0.891357L2.71661 0.0124512H2.81427V4.70972C3.07469 4.50789 3.40021 4.40698 3.79083 4.40698H6.03693C7.99005 4.40698 8.96661 5.38354 8.96661 7.33667V12.2195C8.96661 14.1726 7.99005 15.1492 6.03693 15.1492H3.79083Z" fill="#9893A3" fill-opacity="0.6"/>
<path d="M13.5311 2.24878C13.3032 2.0144 13.1893 1.73446 13.1893 1.40894C13.1893 1.0769 13.3032 0.793701 13.5311 0.559326C13.7589 0.324951 14.0356 0.207764 14.3611 0.207764C14.6867 0.207764 14.9634 0.324951 15.1912 0.559326C15.4191 0.793701 15.533 1.0769 15.533 1.40894C15.533 1.73446 15.4191 2.0144 15.1912 2.24878C14.9634 2.48315 14.6867 2.60034 14.3611 2.60034C14.0356 2.60034 13.7589 2.48315 13.5311 2.24878ZM13.3846 15.5398V4.89526L15.2401 4.01636H15.3377V14.6609L13.4822 15.5398H13.3846Z" fill="#9893A3" fill-opacity="0.6"/>
<path d="M19.7557 15.5398V7.33667C19.7557 5.38354 20.7322 4.40698 22.6854 4.40698H24.9315C26.8846 4.40698 27.8611 5.38354 27.8611 7.33667V14.6609L26.0057 15.5398H25.908V7.33667C25.908 6.55542 25.5825 6.16479 24.9315 6.16479H22.6854C22.0343 6.16479 21.7088 6.55542 21.7088 7.33667V14.6609L19.8533 15.5398H19.7557Z" fill="#9893A3" fill-opacity="0.6"/>
<path d="M34.2322 13.3914H36.283C36.9341 13.3914 37.2596 13.0007 37.2596 12.2195V10.8816C37.2596 10.1003 36.9341 9.70972 36.283 9.70972H34.2322C33.5812 9.70972 33.2557 10.1003 33.2557 10.8816V12.2195C33.2557 13.0007 33.5812 13.3914 34.2322 13.3914ZM34.2322 15.1492C32.2791 15.1492 31.3026 14.1726 31.3026 12.2195V10.8816C31.3026 8.92847 32.2791 7.9519 34.2322 7.9519H36.283C36.6216 7.9519 36.9471 8.04956 37.2596 8.24487V7.33667C37.2596 6.55542 36.9341 6.16479 36.283 6.16479H32.7869V6.06714L33.5682 4.40698H36.283C38.2361 4.40698 39.2127 5.38354 39.2127 7.33667V14.6609L37.3572 15.5398H37.2596V14.8562C37.0122 15.0515 36.6867 15.1492 36.283 15.1492H34.2322Z" fill="#9893A3" fill-opacity="0.6"/>
<path d="M44.4315 15.5398V6.18433H41.9217V6.08667L42.7127 4.40698H44.4315V0.891357L46.2869 0.0124512H46.3846V4.40698H48.8943V4.50464L48.1033 6.18433H46.3846V14.6609L44.5291 15.5398H44.4315Z" fill="#9893A3" fill-opacity="0.6"/>
<path d="M54.533 13.3914H56.7791C57.4302 13.3914 57.7557 13.0007 57.7557 12.2195V7.33667C57.7557 6.55542 57.4302 6.16479 56.7791 6.16479H54.533C53.882 6.16479 53.5565 6.55542 53.5565 7.33667V12.2195C53.5565 13.0007 53.882 13.3914 54.533 13.3914ZM54.533 15.1492C52.5799 15.1492 51.6033 14.1726 51.6033 12.2195V7.33667C51.6033 5.38354 52.5799 4.40698 54.533 4.40698H56.7791C58.7322 4.40698 59.7088 5.38354 59.7088 7.33667V12.2195C59.7088 14.1726 58.7322 15.1492 56.7791 15.1492H54.533Z" fill="#9893A3" fill-opacity="0.6"/>
<path d="M63.6385 15.5398V7.33667C63.6385 5.38354 64.6151 4.40698 66.5682 4.40698H69.0096V4.50464L68.2283 6.16479H66.5682C65.9171 6.16479 65.5916 6.55542 65.5916 7.33667V14.6609L63.7361 15.5398H63.6385Z" fill="#9893A3" fill-opacity="0.6"/>
</svg>
