<svg width="81" height="15" viewBox="0 0 81 15" fill="none" xmlns="http://www.w3.org/2000/svg">
<path d="M0.156311 0.835205H2.67463V11.5703H0.156311V0.835205Z" fill="#9893A3" fill-opacity="0.6"/>
<path fill-rule="evenodd" clip-rule="evenodd" d="M6.89682 4.28659C5.22206 4.89207 4.13206 6.31531 4.13546 7.89217C4.12409 8.92806 4.59299 9.92429 5.43637 10.6561C6.27974 11.3879 7.42655 11.7937 8.61807 11.7819C10.4319 11.7819 12.0669 10.8316 12.7603 9.37451C13.4536 7.9174 13.0685 6.24064 11.7848 5.12668C10.501 4.01271 8.57159 3.6811 6.89682 4.28659ZM8.58522 6.24311C9.65401 6.22719 10.5378 6.96318 10.5654 7.89217C10.5938 8.35227 10.3995 8.8017 10.0295 9.13164C9.65956 9.46158 9.14772 9.64194 8.61793 9.62905C7.549 9.62874 6.68013 8.87944 6.67115 7.95018C6.66217 7.02091 7.51644 6.25903 8.58522 6.24311Z" fill="#9893A3" fill-opacity="0.6"/>
<path fill-rule="evenodd" clip-rule="evenodd" d="M33.344 11.2373V4.24602L30.8676 4.26791V4.99769C30.2646 4.35831 29.3498 4.00393 28.3997 4.04168C26.026 4.04168 24.1017 5.71456 24.1017 7.77816C24.1017 9.84176 26.026 11.5146 28.3997 11.5146C29.3505 11.5559 30.2671 11.2009 30.8676 10.5586V11.2373C30.9164 11.6883 30.7215 12.1335 30.3401 12.4422C29.9588 12.7509 29.4341 12.8881 28.9201 12.8136C28.1316 12.8704 27.383 12.503 27.0314 11.8868L24.8656 12.9742C25.7122 14.1721 27.257 14.8591 28.8698 14.7549C31.1195 14.7549 33.344 13.7113 33.344 11.2373ZM29.663 6.08191C30.4251 6.38066 30.9018 7.05201 30.8675 7.77813C30.8831 8.24797 30.6694 8.70163 30.2792 9.02697C29.8889 9.35231 29.3586 9.51899 28.8193 9.48581C27.9834 9.4852 27.2318 9.04303 26.9203 8.36864C26.6088 7.69425 26.8 6.92298 27.4033 6.41997C28.0066 5.91696 28.901 5.78315 29.663 6.08191Z" fill="#9893A3" fill-opacity="0.6"/>
<path fill-rule="evenodd" clip-rule="evenodd" d="M16.7326 4.3378C15.0578 4.94328 13.9678 6.36652 13.9712 7.94338C13.9598 8.97927 14.4287 9.9755 15.2721 10.7073C16.1155 11.4392 17.2623 11.8449 18.4538 11.8331C20.2676 11.8331 21.9027 10.8828 22.596 9.42572C23.2893 7.96861 22.9043 6.29185 21.6205 5.17789C20.3368 4.06392 18.4073 3.73231 16.7326 4.3378ZM18.421 6.29432C19.4898 6.2784 20.3736 7.01439 20.4012 7.94338H20.3844C20.4125 8.40088 20.2204 8.84793 19.8542 9.17738C19.488 9.50684 18.9806 9.68902 18.4537 9.68026C17.3848 9.67994 16.5159 8.93065 16.5069 8.00138C16.4979 7.07212 17.3522 6.31024 18.421 6.29432Z" fill="#9893A3" fill-opacity="0.6"/>
<path fill-rule="evenodd" clip-rule="evenodd" d="M36.3385 0.915466C35.4947 0.915466 34.8107 1.51012 34.8107 2.24367C34.8153 2.97555 35.4966 3.56788 36.3385 3.57187C37.1823 3.57187 37.8663 2.97721 37.8663 2.24367C37.8663 1.51012 37.1823 0.915466 36.3385 0.915466ZM37.5892 4.21411H35.0709V11.5703H37.5892V4.21411Z" fill="#9893A3" fill-opacity="0.6"/>
<path fill-rule="evenodd" clip-rule="evenodd" d="M47.4819 10.5674C48.2399 9.83724 48.6315 8.87431 48.5698 7.89219C48.6292 6.91129 48.2366 5.95025 47.4788 5.22165C46.7211 4.49305 45.6607 4.05692 44.5321 4.00975C43.5812 3.97006 42.659 4.29879 42.0138 4.90738V4.21409H39.4955V14.5332H42.0138V10.8843C42.659 11.4929 43.5812 11.8216 44.5321 11.7819C45.6622 11.7348 46.724 11.2976 47.4819 10.5674ZM44.0203 6.18506C45.1196 6.17699 46.0235 6.93665 46.0513 7.89212H46.0345C46.0744 8.37548 45.8721 8.85024 45.4795 9.19429C45.087 9.53835 44.5426 9.71813 43.9863 9.68739C42.8872 9.66319 42.0134 8.87744 42.0227 7.92169C42.032 6.96594 42.9209 6.19313 44.0203 6.18506Z" fill="#9893A3" fill-opacity="0.6"/>
<path d="M56.4107 9.36636C56.4107 11.0594 54.7319 11.7819 52.8851 11.7819C51.3758 11.8981 49.9369 11.2047 49.2503 10.0305L51.4496 8.94308C51.6336 9.49005 52.2312 9.85159 52.8851 9.81152C53.4979 9.81152 53.8001 9.64367 53.8001 9.35176C53.8001 8.5417 49.6029 8.97227 49.6029 6.43264C49.6029 4.82712 51.1642 4.01706 52.9606 4.01706C54.3106 3.9814 55.5766 4.5848 56.268 5.59339L54.0603 6.60049C53.861 6.20672 53.4135 5.9521 52.9187 5.95098C52.4822 5.95098 52.2135 6.09694 52.2135 6.36696C52.2471 7.2062 56.4107 6.64427 56.4107 9.36636Z" fill="#9893A3" fill-opacity="0.6"/>
<path d="M65.6785 4.21411V11.5703H63.1602V10.8843C62.566 11.5026 61.6673 11.8363 60.7426 11.7819C59.0638 11.7819 57.5779 10.7238 57.5779 8.73146V4.21411H60.0963V8.41035C60.0514 8.77249 60.1964 9.13296 60.491 9.39192C60.7856 9.65088 61.1986 9.78086 61.6157 9.74585C62.539 9.74585 63.1854 9.27879 63.1854 8.2352V4.21411H65.6785Z" fill="#9893A3" fill-opacity="0.6"/>
<path d="M80.2354 7.06017V11.5702H77.7171V7.24991C77.7171 6.52013 77.3058 6.03848 76.4999 6.03848C75.6941 6.03848 75.1736 6.55662 75.1736 7.42506V11.5702H72.6553V7.24991C72.6553 6.52013 72.2524 6.03848 71.4381 6.03848C70.6239 6.03848 70.1202 6.55662 70.1202 7.42506V11.5702H67.6019V4.21403H70.1202V4.89272C70.6549 4.28371 71.5079 3.95138 72.3867 4.00969C73.2702 3.97241 74.1114 4.34085 74.6028 4.9803C75.1738 4.3122 76.0994 3.94571 77.054 4.00969C78.9679 4.00969 80.2354 5.22112 80.2354 7.06017Z" fill="#9893A3" fill-opacity="0.6"/>
</svg>
