<svg width="58" height="18" viewBox="0 0 58 18" fill="none" xmlns="http://www.w3.org/2000/svg">
<path d="M8.99701 9.33301C8.99701 10.8564 8.67181 12.0459 8.02142 12.9014C7.37103 13.751 6.46283 14.1758 5.29681 14.1758C4.26556 14.1758 3.44232 13.7803 2.82709 12.9893L2.71283 14H0.427673V0.5H2.96771V5.34277C3.55365 4.65723 4.32416 4.31445 5.27924 4.31445C6.43939 4.31445 7.3476 4.74219 8.00385 5.59766C8.66595 6.44727 8.99701 7.64551 8.99701 9.19238V9.33301ZM6.45697 9.14844C6.45697 8.1875 6.30463 7.4873 5.99994 7.04785C5.69525 6.60254 5.24115 6.37988 4.63763 6.37988C3.82904 6.37988 3.2724 6.71094 2.96771 7.37305V11.126C3.27826 11.7939 3.84076 12.1279 4.65521 12.1279C5.47552 12.1279 6.01459 11.7236 6.2724 10.915C6.39545 10.5283 6.45697 9.93945 6.45697 9.14844ZM17.2656 13.0332C16.6386 13.7949 15.7714 14.1758 14.664 14.1758C13.6445 14.1758 12.8652 13.8828 12.3261 13.2969C11.7929 12.7109 11.5204 11.8525 11.5087 10.7217V4.49023H14.0488V10.6338C14.0488 11.624 14.4999 12.1191 15.4023 12.1191C16.2636 12.1191 16.8554 11.8203 17.1777 11.2227V4.49023H19.7265V14H17.3359L17.2656 13.0332ZM26.1933 10.4053L27.9511 4.49023H30.6757L26.8525 15.4766L26.6415 15.9775C26.0732 17.2197 25.1357 17.8408 23.829 17.8408C23.4599 17.8408 23.0849 17.7852 22.704 17.6738V15.749L23.0908 15.7578C23.5712 15.7578 23.9286 15.6846 24.163 15.5381C24.4033 15.3916 24.5908 15.1484 24.7255 14.8086L25.0244 14.0264L21.6933 4.49023H24.4267L26.1933 10.4053ZM34.0312 4.49023L34.0663 6.03711C34.4179 5.46289 34.8574 5.03223 35.3847 4.74512C35.912 4.45801 36.498 4.31445 37.1425 4.31445C38.6425 4.31445 39.5947 4.92969 39.999 6.16016C40.3388 5.56836 40.7929 5.11426 41.3613 4.79785C41.9296 4.47559 42.5566 4.31445 43.2421 4.31445C45.2812 4.31445 46.3212 5.42773 46.3622 7.6543V14H45.3076V7.7334C45.3017 6.88379 45.1171 6.25391 44.7538 5.84375C44.3964 5.43359 43.8105 5.22852 42.996 5.22852C42.2402 5.24023 41.6015 5.48633 41.08 5.9668C40.5585 6.44141 40.2685 7.02148 40.2099 7.70703V14H39.1552V7.6543C39.1494 6.83984 38.956 6.2334 38.5751 5.83496C38.2001 5.43066 37.6201 5.22852 36.8349 5.22852C36.1728 5.22852 35.6044 5.41895 35.1298 5.7998C34.6552 6.1748 34.3036 6.73438 34.0751 7.47852V14H33.0204V4.49023H34.0312ZM53.7167 14.1758C52.9081 14.1758 52.1757 13.9766 51.5195 13.5781C50.8691 13.1797 50.3622 12.626 49.999 11.917C49.6357 11.2021 49.454 10.4023 49.454 9.51758V9.13965C49.454 8.22559 49.6298 7.40234 49.9814 6.66992C50.3388 5.9375 50.8339 5.36328 51.4667 4.94727C52.0995 4.52539 52.7851 4.31445 53.5234 4.31445C54.6777 4.31445 55.5917 4.70996 56.2656 5.50098C56.9453 6.28613 57.2851 7.36133 57.2851 8.72656V9.31543H50.4999V9.51758C50.4999 10.5957 50.8076 11.4951 51.4228 12.2158C52.0439 12.9307 52.8232 13.2881 53.7607 13.2881C54.3232 13.2881 54.8183 13.1855 55.246 12.9805C55.6796 12.7754 56.0722 12.4473 56.4238 11.9961L57.0829 12.4971C56.3095 13.6162 55.1874 14.1758 53.7167 14.1758ZM53.5234 5.21094C52.7324 5.21094 52.0644 5.50098 51.5195 6.08105C50.9804 6.66113 50.6523 7.44043 50.5351 8.41895H56.2392V8.30469C56.2099 7.39062 55.9492 6.64648 55.457 6.07227C54.9648 5.49805 54.3203 5.21094 53.5234 5.21094Z" fill="#9893A3" fill-opacity="0.6"/>
</svg>
