<svg width="23" height="36" viewBox="0 0 23 36" fill="none" xmlns="http://www.w3.org/2000/svg">
<path fill-rule="evenodd" clip-rule="evenodd" d="M3.1238 1.15622V26.4065C3.1238 26.7164 3.01014 27.0137 2.80783 27.2328C2.60553 27.452 2.33114 27.5751 2.04504 27.5751H1.79256C1.19678 27.5751 0.713806 27.0519 0.713806 26.4065V1.15622C0.720097 0.515649 1.20124 -3.62487e-05 1.79256 1.91108e-09H2.04504C2.63637 -3.62487e-05 3.1175 0.515649 3.1238 1.15622ZM16.3564 17.1625C16.5842 16.9275 16.8911 16.804 17.2053 16.8211L17.1479 16.8459C17.4819 16.809 17.814 16.9324 18.0568 17.1834C18.2996 17.4345 18.4288 17.7882 18.4103 18.1513V24.9892C18.4103 25.7101 17.8708 26.2946 17.2053 26.2946C16.5398 26.2946 16.0003 25.7101 16.0003 24.9892V18.0643C15.9999 17.7235 16.1286 17.3975 16.3564 17.1625ZM19.8001 20.7621C19.8001 20.0755 20.3139 19.5189 20.9477 19.5189C21.2798 19.4859 21.6087 19.6109 21.8489 19.8616C22.0891 20.1122 22.2167 20.4636 22.1986 20.8243V22.3286C22.1986 23.0462 21.6617 23.6278 20.9994 23.6278C20.3371 23.6278 19.8001 23.0462 19.8001 22.3286V20.7621ZM10.7326 31.1059V22.1173C10.3738 22.4128 9.93234 22.5663 9.48174 22.5524C9.06841 22.5413 8.66804 22.3938 8.33413 22.1297V31.1059C8.33413 31.8234 8.87106 32.4051 9.53339 32.4051C10.1957 32.4051 10.7326 31.8234 10.7326 31.1059ZM5.72895 25.5238C5.316 25.5104 4.91625 25.3631 4.58133 25.1011V34.1146C4.58133 34.8355 5.12083 35.42 5.78633 35.42C6.45183 35.42 6.99132 34.8355 6.99132 34.1146V25.1632C6.61657 25.4256 6.17441 25.5519 5.72895 25.5238ZM13.3951 19.4816C12.9629 19.4784 12.5421 19.3308 12.1901 19.0589V28.0973C12.1901 28.8183 12.7296 29.4027 13.3951 29.4027C14.0606 29.4027 14.6001 28.8183 14.6001 28.0973V19.0714C14.236 19.3652 13.7916 19.5184 13.3377 19.5065L13.3951 19.4816ZM5.8552 24.5665H5.60273C5.00694 24.5665 4.52397 24.0432 4.52397 23.3978V4.16484C4.53026 3.52428 5.0114 3.00859 5.60273 3.00863H5.8552C6.44653 3.00859 6.92767 3.52428 6.93396 4.16484V23.4227C6.93396 24.0681 6.45098 24.5913 5.8552 24.5913V24.5665ZM9.38994 21.6076H9.65389C10.2433 21.6076 10.7212 21.0899 10.7212 20.4513V7.14864C10.7212 6.50804 10.2452 5.98681 9.65389 5.97999H9.38994C9.10488 5.97998 8.83166 6.1035 8.63117 6.32303C8.43068 6.54255 8.31959 6.83985 8.32266 7.14864V20.4513C8.32266 21.0899 8.8005 21.6076 9.38994 21.6076ZM13.4523 18.5616H13.2113C12.62 18.5616 12.1388 18.046 12.1325 17.4054V10.2443C12.1135 9.92165 12.2187 9.60487 12.4231 9.36929C12.6275 9.13372 12.9128 9.00041 13.2113 9.00107H13.4638C14.0595 9.00107 14.5425 9.52429 14.5425 10.1697V17.3805C14.5456 17.6926 14.4333 17.9931 14.2306 18.2149C14.028 18.4368 13.7519 18.5616 13.4638 18.5616H13.4523ZM17.0098 15.8886H17.2623H17.2738C17.8651 15.8818 18.3411 15.3606 18.3411 14.72V12.8675C18.3348 12.227 17.8536 11.7113 17.2623 11.7113H17.0098C16.4185 11.7113 15.9374 12.227 15.9311 12.8675V14.72C15.9311 15.3654 16.4141 15.8886 17.0098 15.8886Z" fill="#9893A3" fill-opacity="0.6"/>
</svg>
